<svg xmlns="http://www.w3.org/2000/svg"  viewBox="0 0 32 32" width="32px" height="32px"><path d="M 15.945312 2.734375 C 12.261476 2.7530806 9.1954503 5.6878983 8.8964844 9.3417969 C 8.827728 10.183243 8.858168 11.025561 8.9394531 11.867188 C 8.6321829 11.941071 8.3245989 12.002411 8.0175781 12.085938 C 7.1664864 12.31763 6.4466946 12.912946 6.0839844 13.740234 C 4.2721827 17.870318 4.2716701 22.131672 6.0839844 26.261719 C 6.4468676 27.087857 7.1655143 27.68182 8.0175781 27.914062 C 13.326527 29.358394 18.673473 29.358394 23.982422 27.914062 C 24.834486 27.681819 25.553132 27.087857 25.916016 26.261719 C 27.728586 22.131088 27.728586 17.868912 25.916016 13.738281 C 25.552712 12.911186 24.833352 12.318283 23.982422 12.085938 C 23.675254 12.002371 23.367964 11.939148 23.060547 11.865234 C 23.141794 11.024748 23.172642 10.182703 23.103516 9.3417969 C 22.804526 5.6887693 19.738737 2.7530817 16.054688 2.734375 A 1.0001 1.0001 0 0 0 16.050781 2.734375 L 15.949219 2.734375 A 1.0001 1.0001 0 0 0 15.945312 2.734375 z M 15.955078 4.734375 L 16.044922 4.734375 C 18.662873 4.747668 20.894365 6.878887 21.109375 9.5058594 C 21.162855 10.156448 21.145098 10.807499 21.09375 11.458984 C 19.39728 11.165083 17.698548 11.001953 16 11.001953 C 14.302085 11.001953 12.604042 11.165302 10.908203 11.458984 C 10.85659 10.807908 10.837345 10.157907 10.890625 9.5058594 C 11.105659 6.877758 13.336916 4.7476694 15.955078 4.734375 z M 16 12.998047 C 18.48248 12.998047 20.965506 13.337791 23.457031 14.015625 C 23.733479 14.091625 23.977482 14.300507 24.083984 14.542969 C 25.699414 18.224338 25.699414 21.775662 24.083984 25.457031 C 23.976868 25.700893 23.733014 25.908619 23.455078 25.984375 C 18.473288 27.339363 13.526712 27.339363 8.5449219 25.984375 L 8.5429688 25.984375 C 8.2656655 25.908275 8.022937 25.700448 7.9160156 25.457031 C 6.3005863 21.775662 6.3005863 18.224338 7.9160156 14.542969 C 8.0229338 14.299097 8.2671944 14.090436 8.5429688 14.015625 C 11.034494 13.337791 13.51752 12.998047 16 12.998047 z M 16 17 C 15.083334 17 14.268559 17.379756 13.751953 17.960938 C 13.235347 18.542119 13 19.277778 13 20 C 13 20.722222 13.235347 21.457881 13.751953 22.039062 C 14.065738 22.39207 14.510377 22.630587 15 22.794922 L 15 24 A 1.0001 1.0001 0 1 0 17 24 L 17 22.794922 C 17.489623 22.630587 17.934262 22.39207 18.248047 22.039062 C 18.764653 21.457881 19 20.722222 19 20 C 19 19.277778 18.764653 18.542119 18.248047 17.960938 C 17.731441 17.379756 16.916666 17 16 17 z M 16 19 C 16.416666 19 16.601893 19.120244 16.751953 19.289062 C 16.902014 19.457881 17 19.722222 17 20 C 17 20.277778 16.90201 20.542119 16.751953 20.710938 C 16.608109 20.872761 16.412645 20.978826 16.03125 20.988281 A 1.0001 1.0001 0 0 0 15.966797 20.988281 C 15.587263 20.97834 15.391551 20.872379 15.248047 20.710938 C 15.097986 20.542119 15 20.277778 15 20 C 15 19.722222 15.097986 19.457881 15.248047 19.289062 C 15.398107 19.120244 15.583334 19 16 19 z"/></svg>